<svg width="118" height="163" viewBox="0 0 118 163" fill="none" xmlns="http://www.w3.org/2000/svg">
<path d="M47.3331 113.247C46.172 113.031 44.4175 113.462 42.7234 113.889C40.0587 114.554 37.0411 115.311 34.2273 114.188C31.3895 113.066 29.8083 110.463 28.4148 108.164C27.5382 106.721 26.6347 105.23 25.687 104.619C25.4682 104.478 25.1944 104.363 24.899 104.258C24.8104 104.225 24.7178 104.197 24.6225 104.167C24.3849 104.094 24.1325 104.027 23.8654 103.967C23.7728 103.946 23.6842 103.923 23.5875 103.904C23.2694 103.837 22.9338 103.78 22.5901 103.727L4.75116 154.457L21.0262 148.302C21.6786 148.068 22.3498 147.954 23.0102 147.954C24.7178 147.954 26.3514 148.714 27.3581 150.077L37.1171 163L53.3186 116.966C52.5857 116.494 51.8836 115.983 51.1936 115.478C49.8177 114.476 48.3961 113.44 47.333 113.246L47.3331 113.247Z" fill="#140106"/>
<path d="M94.3723 103.905C94.2784 103.924 94.1924 103.946 94.1012 103.967C93.8313 104.028 93.5763 104.095 93.336 104.17C93.2434 104.199 93.1507 104.228 93.0635 104.259C92.7668 104.366 92.4903 104.482 92.2701 104.624C91.364 105.217 90.4686 106.7 89.6028 108.132C88.2067 110.444 86.6267 113.065 83.7662 114.191C82.7191 114.611 81.6399 114.767 80.5606 114.765C78.7618 114.758 76.9657 114.309 75.3065 113.892C73.6044 113.47 71.8459 113.031 70.6861 113.247C69.6082 113.443 68.1879 114.479 66.8145 115.481C66.1232 115.983 65.4184 116.496 64.6868 116.969L80.8708 162.971L90.6247 150.055C92.0919 148.184 94.6815 147.475 96.9674 148.301L113.18 154.259L95.3767 103.73C95.0303 103.783 94.6934 103.841 94.3726 103.906L94.3723 103.905Z" fill="#140106"/>
<path d="M115.565 60.9699C116.761 59.4493 118 57.8771 118 56.6959C118 55.5419 116.77 53.98 115.578 52.4698C114.15 50.6575 112.671 48.7834 112.214 46.4987C111.739 44.192 112.386 41.7796 112.958 39.6522C113.441 37.8477 113.942 35.9799 113.519 34.9833C113.071 33.9623 111.322 32.9774 109.628 32.0261C107.579 30.876 105.459 29.682 104.1 27.7343C102.734 25.7761 102.38 23.3275 102.069 21.168C101.797 19.3183 101.521 17.4052 100.711 16.6257C99.8965 15.8422 97.8897 15.566 95.9501 15.2975C93.5901 14.9735 91.1469 14.6379 89.1186 13.3277C87.1118 12.0421 85.8741 10.0028 84.6738 8.03399C83.6845 6.40757 82.6616 4.72557 81.6011 4.30227C80.5393 3.86856 78.6049 4.36552 76.7309 4.83924C74.5226 5.39171 72.0218 6.01903 69.5922 5.56209C67.251 5.12323 65.3086 3.71236 63.4319 2.34669C61.8492 1.19271 60.2101 0 58.9994 0C57.7913 0 56.1522 1.19013 54.5694 2.34411C52.6928 3.70978 50.7504 5.12451 48.4012 5.56209C46.0077 6.02418 43.5014 5.39171 41.2931 4.83924C39.4097 4.36938 37.47 3.8905 36.4445 4.29711C35.3424 4.7334 34.3115 6.42307 33.3154 8.05461C32.1153 10.0179 30.8776 12.0457 28.8706 13.3328C26.8436 14.6404 24.3976 14.967 22.0313 15.2832C20.0996 15.5414 18.0982 15.8099 17.2885 16.5882C16.4683 17.3769 16.1824 19.3169 15.9099 21.1939C15.581 23.4451 15.2414 25.7749 13.9111 27.7126C12.5405 29.6604 10.4343 30.8454 8.39785 31.9916C6.69032 32.9506 4.92628 33.9446 4.47954 34.9888C4.04059 35.9982 4.54532 37.8647 5.03529 39.6692C5.60984 41.79 6.25955 44.1947 5.78167 46.5157C5.30646 48.785 3.84461 50.645 2.42972 52.4443C1.23632 53.9623 0 55.5319 0 56.6961C0 57.8862 1.24038 59.4674 2.44048 60.9985C3.85 62.7927 5.30647 64.6503 5.7817 66.9039C6.25959 69.2351 5.60987 71.6398 5.03532 73.7606C4.54668 75.5652 4.04062 77.4302 4.47153 78.4216C4.92525 79.4813 6.68245 80.4752 8.38194 81.4356C10.421 82.5857 12.5298 83.7745 13.8683 85.703C15.2282 87.6533 15.5651 90.0054 15.894 92.2782C16.1625 94.1382 16.4417 96.0628 17.2512 96.8413C17.9747 97.5396 19.603 97.8145 21.0702 98.0159L21.8796 98.1269C24.1765 98.4328 26.7794 98.7775 28.8358 100.097C30.8696 101.407 32.1059 103.448 33.3047 105.422C34.2914 107.049 35.3143 108.734 36.3895 109.159C37.454 109.584 39.4099 109.094 41.2972 108.625C41.7805 108.504 42.2799 108.384 42.7859 108.268C42.9255 108.235 43.0651 108.208 43.2061 108.178C43.6316 108.087 44.0612 108.009 44.4975 107.941C44.6344 107.92 44.7686 107.898 44.9056 107.88C45.4814 107.804 46.06 107.749 46.6413 107.749C47.0749 107.749 47.5071 107.808 47.938 107.866C48.0951 107.885 48.2535 107.876 48.4092 107.906C50.1717 108.229 51.7142 109.113 53.1732 110.117C53.6592 110.452 54.1371 110.8 54.6109 111.146C55.7775 111.997 56.8769 112.8 57.881 113.222C58.6555 113.533 59.2905 113.551 60.1456 113.206C61.1416 112.781 62.2343 111.989 63.3875 111.146C65.2802 109.764 67.2402 108.337 69.6083 107.904C72.0152 107.457 74.5201 108.076 76.7284 108.629C78.605 109.099 80.5501 109.591 81.6014 109.163C82.6927 108.732 83.7156 107.04 84.705 105.403C85.8876 103.442 87.1119 101.415 89.1078 100.112C91.1832 98.7813 93.7873 98.4354 96.0829 98.1294L96.8897 98.021C98.4711 97.7977 100.03 97.4995 100.709 96.8464C101.521 96.0654 101.797 94.1408 102.066 92.2832C102.395 90.0089 102.734 87.657 104.097 85.7001C105.459 83.773 107.563 82.588 109.599 81.443C111.308 80.48 113.075 79.4861 113.522 78.4393C113.525 78.4341 113.527 78.429 113.53 78.4212C113.961 77.4299 113.455 75.5647 112.966 73.7603C112.392 71.6395 111.742 69.2348 112.22 66.9138C112.671 64.6523 114.142 62.7793 115.565 60.9698L115.565 60.9699ZM100.287 52.5217L87.2727 64.7122C86.521 65.4247 86.1787 66.4419 86.3559 67.4409L89.4232 84.6641C90.0005 87.8795 88.6527 91.074 85.9022 92.9976C84.345 94.0883 82.5247 94.6408 80.6952 94.6408C79.291 94.6408 77.8815 94.3142 76.5768 93.6546L60.4898 85.4979C59.5837 85.0487 58.4252 85.0461 57.4855 85.5108L41.4253 93.6533C38.421 95.1739 34.8474 94.9235 32.0969 92.9963C29.3476 91.0743 27.9985 87.8796 28.5758 84.6614L31.6432 67.4383C31.8204 66.4392 31.4767 65.4208 30.7223 64.7095L17.7106 52.5191C15.2755 50.2447 14.4164 46.8989 15.4715 43.7894C16.5266 40.6798 19.2743 38.4662 22.6411 38.0092L40.5969 35.4844C41.656 35.3386 42.5286 34.7241 43.0011 33.8025L51.0488 18.1335C52.5549 15.1995 55.598 13.382 58.9944 13.382H59.0158C62.4067 13.3872 65.439 15.2137 66.9277 18.1411L74.9902 33.7972C75.4573 34.7111 76.3473 35.3411 77.3729 35.4843L95.3676 38.0117C98.7195 38.4635 101.467 40.6798 102.522 43.7869C103.584 46.8951 102.725 50.2435 100.287 52.5219L100.287 52.5217Z" fill="#140106"/>
<path d="M94.568 43.3971L76.5623 40.8671C73.6936 40.4657 71.2089 38.7231 69.9189 36.2036L61.8537 20.5421C61.306 19.463 60.2455 18.8253 59.0065 18.8228H58.9984C57.7554 18.8228 56.6801 19.463 56.127 20.5421L48.0821 36.2059C46.7921 38.7281 44.2978 40.4706 41.4105 40.8695L23.4478 43.3943C22.2048 43.5646 21.2396 44.3404 20.8557 45.475C20.469 46.6122 20.7697 47.7869 21.6624 48.6194L34.6824 60.8175C36.7684 62.7847 37.7175 65.6014 37.2222 68.3596L34.1548 85.5814C33.9414 86.7638 34.4206 87.8881 35.4287 88.5955C36.4342 89.3002 37.692 89.3906 38.786 88.8369L54.8706 80.6801C56.1728 80.0373 57.593 79.7159 59.0079 79.7159C60.4174 79.7159 61.8242 80.0347 63.1035 80.6672L79.2163 88.8368C80.2996 89.3841 81.5601 89.2989 82.5709 88.5954C83.5791 87.8881 84.0583 86.7638 83.8448 85.584L80.7775 68.3555C80.2862 65.5945 81.2339 62.7806 83.3119 60.821C83.3146 60.8185 83.3173 60.8159 83.3173 60.8159L96.3372 48.6178C97.2299 47.7865 97.5306 46.6119 97.1467 45.4734C96.7627 44.3388 95.7976 43.563 94.568 43.3965V43.3971ZM59.6323 74.4732C51.0184 74.4732 44.0123 67.7364 44.0123 59.4535C44.0123 51.1705 51.0184 44.4298 59.6323 44.4298C68.2463 44.4298 75.2564 51.1692 75.2564 59.4535C75.2564 67.7364 68.2477 74.4732 59.6323 74.4732Z" fill="#140106"/>
</svg>
