<svg width="10" height="19" viewBox="0 0 10 19" fill="none" xmlns="http://www.w3.org/2000/svg">
<path d="M5.00133 18.5266C5.18008 18.5187 5.38673 18.4351 5.51701 18.2958L9.76719 13.751C10.0108 13.4431 10.1113 12.8525 9.82961 12.5083C9.55217 12.1693 9.01434 12.1794 8.73585 12.5171L5.75136 15.7125L5.75136 1.20007C5.75136 0.729514 5.41549 0.3479 5.00131 0.3479C4.58712 0.3479 4.25126 0.729498 4.25126 1.20007L4.25126 15.7125L1.26676 12.5171C1.01041 12.2262 0.453404 12.1725 0.173 12.5083C-0.107592 12.844 -0.0179539 13.4556 0.235602 13.751L4.48578 18.2958C4.63122 18.4513 4.80194 18.527 5.00146 18.5266H5.00133Z" fill="#EE0743"/>
</svg>
