<svg width="69" height="89" viewBox="0 0 69 89" fill="none" xmlns="http://www.w3.org/2000/svg">
<path d="M48.3298 37.6449C53.7325 33.1842 61.6961 26.6053 62.5299 8.1171H67.3777C68.2745 8.1171 69 7.39022 69 6.49342V1.62368C69 0.726883 68.2745 0 67.3777 0H1.62231C0.725516 0 0 0.726883 0 1.62368V6.49412C0 7.39092 0.725516 8.1178 1.62231 8.1178H6.47013C7.30389 26.6051 15.2674 33.1838 20.6702 37.6456C23.9539 40.3552 25.531 41.7658 25.531 44.1978C25.531 46.6299 23.9539 48.0398 20.6702 50.7501C15.2674 55.2108 7.30391 61.7897 6.47013 80.2779H1.62231C0.725516 80.2779 0 81.0048 0 81.9016V86.772C0 87.6688 0.725516 88.3957 1.62231 88.3957H67.3759C68.2727 88.3957 68.9982 87.6688 68.9982 86.772V81.9016C68.9982 81.0048 68.2727 80.2779 67.3759 80.2779H62.5281C61.6944 61.7905 53.7308 55.2119 48.3281 50.7501C45.0443 48.0405 43.4673 46.6299 43.4673 44.1978C43.4673 41.7651 45.0457 40.3552 48.3295 37.6449H48.3298ZM38.598 44.1971C38.598 49.0311 41.8186 51.6901 45.2285 54.5051C50.4818 58.8423 56.9149 64.1567 57.6589 80.2779L11.3415 80.2772C12.0848 64.1569 18.5193 58.8434 23.7719 54.5044C27.1815 51.6893 30.4023 49.0311 30.4023 44.1965C30.4023 39.3625 27.1817 36.7035 23.7719 33.8886C18.5186 29.5513 12.0854 24.2369 11.3415 8.11572H57.6607C56.9173 24.2361 50.4828 29.5495 45.2302 33.8886C41.8199 36.7044 38.5991 39.3632 38.5991 44.1972L38.598 44.1971Z" fill="#FF0143"/>
<path d="M48.8595 21.1114C44.3728 22.67 35.1712 25.683 31.2894 25.6153C27.7838 25.5543 22.8216 23.1434 19.9304 21.5602C18.6205 20.8422 18.0436 21.3314 18.7836 22.6296C20.9711 26.469 23.8212 28.762 26.4984 30.9131C28.8017 32.7636 31.4592 34.8977 33.1164 37.8825C34.2043 39.8419 34.7921 39.8419 35.8801 37.8825C37.538 34.8975 40.1954 32.7634 42.4981 30.9131C45.1762 28.7618 48.0267 26.4688 50.2129 22.6296C50.9542 21.3314 50.2712 20.6217 48.8592 21.1115L48.8595 21.1114Z" fill="#FF0143"/>
<path d="M32.9924 61.7937C31.1843 65.0487 28.2871 67.3766 25.7742 69.3935C22.9935 71.6268 20.044 74.0049 17.71 77.8422H51.2875C48.9528 74.0049 46.0033 71.6268 43.2233 69.3935C40.7111 67.3759 37.8137 65.0487 36.0065 61.7937C34.8193 59.6568 34.1787 59.6568 32.992 61.7937H32.9924Z" fill="#FF0143"/>
</svg>
