<svg width="80" height="88" viewBox="0 0 80 88" fill="none" xmlns="http://www.w3.org/2000/svg">
<path d="M67.9994 7.99949H63.9997V3.99974C63.9997 1.59976 62.3999 0 59.9999 0C57.5999 0 56.0002 1.59976 56.0002 3.99974V7.99949H23.9998V3.99974C23.9998 1.59976 22.4001 0 20.0001 0C17.6001 0 16.0003 1.59976 16.0003 3.99974V7.99949H11.9999C5.19973 7.99949 0 13.1992 0 19.9994V75.9996C0 82.7998 5.19973 87.9995 11.9999 87.9995H68.0001C74.8003 87.9995 80 82.7998 80 75.9996V19.9994C79.9993 13.599 74.7996 7.99949 67.9994 7.99949ZM19.9997 71.9985C17.5998 71.9985 16 70.3987 16 67.9987C16 65.5987 17.5998 63.999 19.9997 63.999C22.3997 63.999 23.9995 65.5987 23.9995 67.9987C24.0002 70.3987 22.3997 71.9985 19.9997 71.9985ZM19.9997 55.9988C17.5998 55.9988 16 54.3991 16 51.9991C16 49.5991 17.5998 47.9993 19.9997 47.9993C22.3997 47.9993 23.9995 49.5991 23.9995 51.9991C24.0002 54.3984 22.3997 55.9988 19.9997 55.9988ZM40.0002 71.9985C37.6002 71.9985 36.0004 70.3987 36.0004 67.9987C36.0004 65.5987 37.6002 63.999 40.0002 63.999C42.4002 63.999 43.9999 65.5987 43.9999 67.9987C43.9999 70.3987 42.4002 71.9985 40.0002 71.9985ZM40.0002 55.9988C37.6002 55.9988 36.0004 54.3991 36.0004 51.9991C36.0004 49.5991 37.6002 47.9993 40.0002 47.9993C42.4002 47.9993 43.9999 49.5991 43.9999 51.9991C43.9999 54.3984 42.4002 55.9988 40.0002 55.9988ZM60.0006 71.9985C57.6006 71.9985 56.0009 70.3987 56.0009 67.9987C56.0009 65.5987 57.6006 63.999 60.0006 63.999C62.4006 63.999 64.0004 65.5987 64.0004 67.9987C64.0004 70.3987 62.4006 71.9985 60.0006 71.9985ZM60.0006 55.9988C57.6006 55.9988 56.0009 54.3991 56.0009 51.9991C56.0009 49.5991 57.6006 47.9993 60.0006 47.9993C62.4006 47.9993 64.0004 49.5991 64.0004 51.9991C64.0004 54.3984 62.4006 55.9988 60.0006 55.9988ZM72.0005 31.999H7.99983V19.9991C7.99983 17.5991 9.59959 15.9993 11.9996 15.9993H15.9993V19.9991C15.9993 22.399 17.5991 23.9988 19.9991 23.9988C22.399 23.9988 23.9988 22.399 23.9988 19.9991V15.9993H55.9991V19.9991C55.9991 22.399 57.5989 23.9988 59.9989 23.9988C62.3989 23.9988 63.9986 22.399 63.9986 19.9991V15.9993H67.9984C70.3984 15.9993 71.9981 17.5991 71.9981 19.9991L72.0005 31.999Z" fill="#FF0143"/>
</svg>
