<svg width="84" height="89" viewBox="0 0 84 89" fill="none" xmlns="http://www.w3.org/2000/svg">
<path d="M41.9896 0.000605994C19.0186 0.000605994 0.330954 18.6883 0.330954 41.6574C0.330954 51.4387 3.75756 60.8651 10.0063 68.347L0.232672 85.4177C-0.135882 86.0619 -0.061188 86.8674 0.418352 87.4321C0.75969 87.8341 1.25388 88.0526 1.76133 88.0526C1.96724 88.0526 2.17596 88.017 2.37698 87.9416L24.7422 79.5849C30.1692 82.0601 35.9683 83.3137 41.9915 83.3137C64.9625 83.3137 83.6502 64.626 83.6502 41.6568C83.6502 18.6877 64.9607 0 41.9898 0L41.9896 0.000605994ZM41.9896 79.794C36.2421 79.794 30.7194 78.5474 25.5758 76.0897C25.1451 75.8838 24.6467 75.8608 24.2007 76.0297L5.71134 82.9387L13.6819 69.0182C14.0575 68.3613 13.9716 67.5398 13.4704 66.9737C7.26854 59.9922 3.8539 51.0024 3.8539 41.6601C3.8539 20.6316 20.9623 3.52354 41.9905 3.52354C63.0187 3.52354 80.1253 20.6312 80.1253 41.6601C80.1253 62.6887 63.0183 79.7949 41.9887 79.7949L41.9896 79.794ZM15.3322 26.0665C15.3322 25.0935 16.1203 24.3054 17.0933 24.3054H50.2962C51.2692 24.3054 52.0573 25.0935 52.0573 26.0665C52.0573 27.0395 51.2692 27.8276 50.2962 27.8276H17.0915C16.1192 27.8269 15.3311 27.0388 15.3311 26.0665H15.3322ZM15.3322 38.5702C15.3322 37.5971 16.1203 36.8091 17.0933 36.8091H57.3206C58.2936 36.8091 59.0817 37.5971 59.0817 38.5702C59.0817 39.5432 58.2936 40.3313 57.3206 40.3313H17.0933C16.121 40.3306 15.3329 39.5432 15.3329 38.5702H15.3322ZM47.6577 52.6583C47.6577 53.6313 46.8696 54.4194 45.8966 54.4194H17.0913C16.1183 54.4194 15.3302 53.6313 15.3302 52.6583C15.3302 51.6853 16.1183 50.8972 17.0913 50.8972L45.8966 50.8965C46.8696 50.8965 47.6577 51.6853 47.6577 52.6583ZM73.8737 38.5702C73.8737 39.5432 73.0856 40.3313 72.1126 40.3313H65.5651C64.5921 40.3313 63.804 39.5432 63.804 38.5702C63.804 37.5971 64.5921 36.8091 65.5651 36.8091H72.1126C73.0856 36.8084 73.8737 37.5964 73.8737 38.5702ZM69.923 52.6583C69.923 53.6313 69.1349 54.4194 68.1619 54.4194H54.3257C53.3527 54.4194 52.5646 53.6313 52.5646 52.6583C52.5646 51.6853 53.3527 50.8972 54.3257 50.8972H68.1626C69.1356 50.8965 69.923 51.6853 69.923 52.6583H69.923Z" fill="#FF0143"/>
</svg>
