<svg width="12" height="9" viewBox="0 0 12 9" fill="none" xmlns="http://www.w3.org/2000/svg">
<path d="M11.6796 0.330363C11.7812 0.434819 11.8617 0.558908 11.9167 0.695524C11.9717 0.832139 12 0.978597 12 1.12651C12 1.27442 11.9717 1.42087 11.9167 1.55749C11.8617 1.69411 11.7812 1.8182 11.6796 1.92265L5.13595 8.66964C5.03465 8.77436 4.9143 8.85744 4.7818 8.91413C4.6493 8.97082 4.50726 9 4.3638 9C4.22035 9 4.07831 8.97082 3.94581 8.91413C3.81331 8.85744 3.69296 8.77436 3.59165 8.66964L0.319835 5.29614C0.218435 5.19159 0.138 5.06747 0.0831224 4.93087C0.0282451 4.79427 0 4.64786 0 4.5C0 4.35214 0.0282451 4.20573 0.0831224 4.06913C0.138 3.93253 0.218435 3.80841 0.319835 3.70386C0.524622 3.4927 0.802372 3.37408 1.09198 3.37408C1.23539 3.37408 1.37738 3.4032 1.50987 3.45979C1.64236 3.51637 1.76273 3.5993 1.86413 3.70386L4.3638 6.28345L10.1353 0.330363C10.2366 0.225642 10.357 0.142558 10.4895 0.0858685C10.6219 0.0291793 10.764 0 10.9074 0C11.0509 0 11.1929 0.0291793 11.3254 0.0858685C11.4579 0.142558 11.5783 0.225642 11.6796 0.330363Z" fill="#FF0143"/>
</svg>
