<svg width="88" height="88" viewBox="0 0 88 88" fill="none" xmlns="http://www.w3.org/2000/svg">
<path d="M44 0C32.3306 0 21.1396 4.63566 12.8873 12.8873C4.63584 21.1394 0 32.3318 0 44C0 55.6682 4.63566 66.8604 12.8873 75.1127C21.1394 83.3642 32.3318 88 44 88C55.6682 88 66.8604 83.3643 75.1127 75.1127C83.3642 66.8606 88 55.6682 88 44C87.9874 32.3342 83.3482 21.1503 75.0987 12.9016C66.85 4.65218 55.6649 0.0129305 44.0004 0.000358989L44 0ZM44 81.715C33.9976 81.715 24.4046 77.7415 17.3322 70.6685C10.2593 63.5956 6.28577 54.0028 6.28577 44.0007C6.28577 33.9986 10.2593 24.4053 17.3322 17.3329C24.4051 10.26 33.9979 6.28648 44 6.28648C54.0021 6.28648 63.5954 10.26 70.6678 17.3329C77.7407 24.4058 81.7142 33.9986 81.7142 44.0007C81.7037 53.9998 77.7267 63.5854 70.656 70.6578C63.5852 77.7285 53.9987 81.7056 43.9989 81.716L44 81.715Z" fill="#FF0143"/>
<path d="M62.8573 40.8574H47.1429V22.0001C47.1429 20.877 46.5438 19.8395 45.5715 19.2782C44.5991 18.717 43.4009 18.717 42.4286 19.2782C41.4563 19.8395 40.8571 20.877 40.8571 22.0001V44.0003C40.8571 44.8337 41.1883 45.6335 41.7776 46.2228C42.3668 46.8121 43.1666 47.1432 44 47.1432H62.8573C63.9805 47.1432 65.018 46.5441 65.5792 45.5718C66.1405 44.5994 66.1405 43.4012 65.5792 42.4289C65.018 41.4566 63.9804 40.8574 62.8573 40.8574Z" fill="#FF0143"/>
</svg>
