<svg width="265" height="107" viewBox="0 0 265 107" fill="none" xmlns="http://www.w3.org/2000/svg">
<path d="M93.144 29.0959H94.584V34.9999H80.472V29.0959H82.632L82.056 26.2159H77.16L76.584 29.0959H78.744V34.9999H66.432V29.0959H67.872L73.956 6.99194H87.06L93.144 29.0959ZM77.952 22.3999H81.264L79.788 15.2359H79.428L77.952 22.3999Z" fill="#FF0143"/>
<path d="M118.26 6.99194H130.068V12.8959H128.268V34.9999H118.152L107.604 18.7639V29.0959H109.332V34.9999H97.5239V29.0959H99.3239V12.8959H97.5239V6.99194H110.52L119.988 21.4279V12.8959H118.26V6.99194Z" fill="#FF0143"/>
<path d="M133.25 29.0959H135.05V12.9319H133.25V6.99194H147.866C151.874 6.99194 155.054 8.09594 157.406 10.3039C159.782 12.4879 160.97 16.0519 160.97 20.9959C160.97 25.9399 159.782 29.5159 157.406 31.7239C155.054 33.9079 151.874 34.9999 147.866 34.9999H133.25V29.0959ZM147.218 29.0959C148.034 29.0959 148.646 28.8799 149.054 28.4479C149.462 28.0159 149.666 27.3439 149.666 26.4319V15.5599C149.666 13.7839 148.85 12.8959 147.218 12.8959H145.13V29.0959H147.218Z" fill="#FF0143"/>
<path d="M163.983 29.0959H165.783V12.8959H163.983V6.99194H180.507C183.603 6.99194 185.967 7.62794 187.599 8.89994C189.231 10.1719 190.047 12.2359 190.047 15.0919C190.047 16.6999 189.723 18.0919 189.075 19.2679C188.427 20.4439 187.503 21.2599 186.303 21.7159L186.339 22.0759C188.643 22.4359 189.795 23.8519 189.795 26.3239V29.0959H191.487V34.9999H180.075V26.5399C180.075 25.6039 179.931 24.8959 179.643 24.4159C179.379 23.9359 178.947 23.6119 178.347 23.4439C177.771 23.2759 176.943 23.1919 175.863 23.1919V29.0959H178.239V34.9999H163.983V29.0959ZM177.807 18.7999C178.503 18.7999 179.019 18.6199 179.355 18.2599C179.715 17.8759 179.895 17.2879 179.895 16.4959V15.1999C179.895 14.4079 179.715 13.8319 179.355 13.4719C179.019 13.0879 178.503 12.8959 177.807 12.8959H175.863V18.7999H177.807Z" fill="#FF0143"/>
<path d="M194.576 34.9999V29.0959H196.376V12.8959H194.576V6.99194H218.876V17.8639H210.812V12.8959H206.456V18.5839H209.624V22.6879H206.456V29.0959H210.812V23.4079H218.876V34.9999H194.576ZM202.964 4.83194V4.29194L206.888 0.835938H215.924V1.77194L210.056 4.83194H202.964Z" fill="#FF0143"/>
<path d="M103.192 71.1279H105.112V78.9999H86.296V71.1279H89.176L88.408 67.2879H81.88L81.112 71.1279H83.992V78.9999H67.576V71.1279H69.496L77.608 41.6559H95.08L103.192 71.1279ZM82.936 62.1999H87.352L85.384 52.6479H84.904L82.936 62.1999Z" fill="#FF0143"/>
<path d="M111.432 71.1279H113.832V49.5279H111.432V41.6559H133.464C137.592 41.6559 140.744 42.5039 142.92 44.1999C145.096 45.8959 146.184 48.6479 146.184 52.4559C146.184 54.5999 145.752 56.4559 144.888 58.0239C144.024 59.5919 142.792 60.6799 141.192 61.2879L141.24 61.7679C144.312 62.2479 145.848 64.1359 145.848 67.4319V71.1279H148.104V78.9999H132.888V67.7199C132.888 66.4719 132.696 65.5279 132.312 64.8879C131.96 64.2479 131.384 63.8159 130.584 63.5919C129.816 63.3679 128.712 63.2559 127.272 63.2559V71.1279H130.44V78.9999H111.432V71.1279ZM129.864 57.3999C130.792 57.3999 131.48 57.1599 131.928 56.6799C132.408 56.1679 132.648 55.3839 132.648 54.3279V52.5999C132.648 51.5439 132.408 50.7759 131.928 50.2959C131.48 49.7839 130.792 49.5279 129.864 49.5279H127.272V57.3999H129.864Z" fill="#FF0143"/>
<path d="M154.622 78.9999V71.1279H157.022V49.5279H154.622V41.6559H172.863V49.5279H170.462V71.1279H172.863V78.9999H154.622Z" fill="#FF0143"/>
<path d="M215.771 66.9999H213.371V76.5999C211.963 77.3999 209.899 78.1199 207.179 78.7599C204.491 79.3679 201.579 79.6719 198.443 79.6719C192.459 79.6719 187.771 78.1039 184.379 74.9679C180.987 71.7999 179.291 66.9199 179.291 60.3279C179.291 53.5759 180.971 48.6639 184.331 45.5919C187.723 42.5199 192.555 40.9839 198.827 40.9839C201.867 40.9839 204.715 41.3039 207.371 41.9439C210.027 42.5839 212.027 43.3039 213.371 44.1039V55.5759H201.371V53.3199C201.371 51.9759 201.083 51.0159 200.507 50.4399C199.963 49.8319 199.083 49.5279 197.867 49.5279C196.651 49.5279 195.755 49.8319 195.179 50.4399C194.635 51.0159 194.363 51.9759 194.363 53.3199V67.3359C194.363 68.6799 194.635 69.6559 195.179 70.2639C195.755 70.8399 196.651 71.1279 197.867 71.1279C199.083 71.1279 199.963 70.8399 200.507 70.2639C201.083 69.6559 201.371 68.6799 201.371 67.3359V66.9999H198.779V59.8479H215.771V66.9999Z" fill="#FF0143"/>
<path d="M262.698 70.1521H265V78.9999H242.442V70.1521H245.895L244.974 65.836H237.148L236.228 70.1521H239.68V78.9999H220V70.1521H222.302L232.138 27.9999H251.962L262.698 70.1521ZM237.983 60.1173H243.708V38.9586H241.13L237.983 60.1173Z" fill="#FF0143"/>
<path d="M62 45.8249H59.1895V70.8718H62V79.9999H40.7525V70.8718H43.4506V51.3909L33.8948 79.9999H25.5757L15.7389 51.6692V70.8718H18.437V79.9999H0V70.8718H2.81052V45.8249H0V27.9999H25.5757L31.5902 54.0626L37.1691 27.9999H62V45.8249Z" fill="#FF0143"/>
<path d="M80.096 102.064H81.056V106H71.648V102.064H73.088L72.704 100.144H69.44L69.056 102.064H70.496V106H62.288V102.064H63.248L67.304 87.3279H76.04L80.096 102.064ZM69.968 97.5999H72.176L71.192 92.8239H70.952L69.968 97.5999Z" fill="#FF0143"/>
<path d="M82.2959 102.064H83.4959V91.2639H82.2959V87.3279H92.8319C94.8959 87.3279 96.4719 87.7759 97.5599 88.6719C98.6479 89.5519 99.1919 90.9839 99.1919 92.9679C99.1919 94.9519 98.6479 96.3919 97.5599 97.2879C96.4719 98.1679 94.8959 98.6079 92.8319 98.6079H90.2159V102.064H92.5199V106H82.2959V102.064ZM91.0319 95.1999C91.9599 95.1999 92.4239 94.6879 92.4239 93.6639V92.7999C92.4239 92.2719 92.3039 91.8879 92.0639 91.6479C91.8399 91.3919 91.4959 91.2639 91.0319 91.2639H90.2159V95.1999H91.0319Z" fill="#FF0143"/>
<path d="M100.495 102.064H101.695V91.2639H100.495V87.3279H111.511C113.575 87.3279 115.151 87.7519 116.239 88.5999C117.327 89.4479 117.871 90.8239 117.871 92.7279C117.871 93.7999 117.655 94.7279 117.223 95.5119C116.791 96.2959 116.175 96.8399 115.375 97.1439L115.399 97.3839C116.935 97.6239 117.703 98.5679 117.703 100.216V102.064H118.831V106H111.223V100.36C111.223 99.7359 111.127 99.2639 110.935 98.9439C110.759 98.6239 110.471 98.4079 110.071 98.2959C109.687 98.1839 109.135 98.1279 108.415 98.1279V102.064H109.999V106H100.495V102.064ZM109.711 95.1999C110.175 95.1999 110.519 95.0799 110.743 94.8399C110.983 94.5839 111.103 94.1919 111.103 93.6639V92.7999C111.103 92.2719 110.983 91.8879 110.743 91.6479C110.519 91.3919 110.175 91.2639 109.711 91.2639H108.415V95.1999H109.711Z" fill="#FF0143"/>
<path d="M120.17 106V102.064H121.37V91.2639H120.17V87.3279H136.37V94.5759H130.994V91.2639H128.09V95.0559H130.202V97.7919H128.09V102.064H130.994V98.2719H136.37V106H120.17Z" fill="#FF0143"/>
<path d="M145.199 106.336C143.663 106.336 142.207 106.208 140.831 105.952C139.471 105.68 138.423 105.376 137.687 105.04V100.288H142.967C142.967 100.784 143.079 101.144 143.303 101.368C143.527 101.592 143.935 101.704 144.527 101.704C145.023 101.704 145.375 101.632 145.583 101.488C145.807 101.328 145.919 101.096 145.919 100.792C145.919 100.536 145.815 100.32 145.607 100.144C145.399 99.9519 145.039 99.7599 144.527 99.5679L142.463 98.8479C140.687 98.1759 139.407 97.3839 138.623 96.4719C137.855 95.5599 137.471 94.3279 137.471 92.7759C137.471 90.8879 138.087 89.4559 139.319 88.4799C140.567 87.4879 142.639 86.9919 145.535 86.9919C146.927 86.9919 148.231 87.1359 149.447 87.4239C150.679 87.6959 151.671 88.0639 152.423 88.5279V92.8239H147.623C147.623 92.0239 147.127 91.6239 146.135 91.6239C145.655 91.6239 145.311 91.6879 145.103 91.8159C144.911 91.9279 144.815 92.1359 144.815 92.4399C144.815 92.7119 144.927 92.9279 145.151 93.0879C145.391 93.2479 145.775 93.4159 146.303 93.5919L148.391 94.3119C150.087 94.8879 151.319 95.6399 152.087 96.5679C152.871 97.4799 153.263 98.6799 153.263 100.168C153.263 102.2 152.575 103.736 151.199 104.776C149.839 105.816 147.839 106.336 145.199 106.336Z" fill="#FF0143"/>
<path d="M154.411 106V102.064H155.611V91.2639H154.411V87.3279H170.611V94.5759H165.235V91.2639H162.331V95.0559H164.443V97.7919H162.331V102.064H165.235V98.2719H170.611V106H154.411Z" fill="#FF0143"/>
<path d="M185.825 87.3279H193.697V91.2639H192.497V106H185.753L178.721 95.1759V102.064H179.873V106H172.001V102.064H173.201V91.2639H172.001V87.3279H180.665L186.977 96.9519V91.2639H185.825V87.3279Z" fill="#FF0143"/>
<path d="M213.002 93.1359H208.874V91.2639H207.338V102.064H209.018V106H198.938V102.064H200.618V91.2639H199.082V93.1359H194.954V87.3279H213.002V93.1359Z" fill="#FF0143"/>
<path d="M229.272 102.064H230.232V106H220.824V102.064H222.264L221.88 100.144H218.616L218.232 102.064H219.672V106H211.464V102.064H212.424L216.48 87.3279H225.216L229.272 102.064ZM219.144 97.5999H221.352L220.368 92.8239H220.128L219.144 97.5999Z" fill="#FF0143"/>
</svg>
