<svg width="25" height="35" viewBox="0 0 25 35" fill="none" xmlns="http://www.w3.org/2000/svg">
<path d="M12.248 0.895997C14.776 0.895997 16.888 1.336 18.584 2.216C20.296 3.096 21.576 4.264 22.424 5.72C23.288 7.16 23.72 8.728 23.72 10.424C23.72 11.768 23.488 13.088 23.024 14.384C22.576 15.664 21.832 17.024 20.792 18.464C19.752 19.888 18.368 21.472 16.64 23.216C14.928 24.96 12.808 26.96 10.28 29.216H24.488L23.672 35H1.568V29.624C3.76 27.512 5.664 25.64 7.28 24.008C8.896 22.376 10.256 20.928 11.36 19.664C12.48 18.4 13.376 17.272 14.048 16.28C14.736 15.288 15.232 14.376 15.536 13.544C15.84 12.696 15.992 11.88 15.992 11.096C15.992 9.752 15.6 8.688 14.816 7.904C14.048 7.12 12.952 6.728 11.528 6.728C10.264 6.728 9.168 6.992 8.24 7.52C7.312 8.048 6.416 8.904 5.552 10.088L0.896 6.584C2.144 4.856 3.68 3.48 5.504 2.456C7.328 1.416 9.576 0.895997 12.248 0.895997Z" fill="#121212"/>
</svg>
