<svg width="26" height="36" viewBox="0 0 26 36" fill="none" xmlns="http://www.w3.org/2000/svg">
<path d="M13.056 0.895997C15.456 0.895997 17.496 1.288 19.176 2.072C20.872 2.84 22.16 3.872 23.04 5.168C23.936 6.448 24.384 7.864 24.384 9.416C24.384 10.824 24.104 12.056 23.544 13.112C22.984 14.152 22.192 15.024 21.168 15.728C20.16 16.432 18.968 16.984 17.592 17.384C19.128 17.592 20.48 18.008 21.648 18.632C22.832 19.24 23.76 20.112 24.432 21.248C25.104 22.384 25.44 23.848 25.44 25.64C25.44 27.512 24.92 29.216 23.88 30.752C22.856 32.288 21.384 33.52 19.464 34.448C17.544 35.36 15.248 35.816 12.576 35.816C10.096 35.816 7.872 35.384 5.904 34.52C3.936 33.64 2.256 32.408 0.864 30.824L5.136 26.84C6.096 27.944 7.16 28.752 8.328 29.264C9.512 29.76 10.76 30.008 12.072 30.008C13.72 30.008 15.064 29.592 16.104 28.76C17.144 27.912 17.664 26.696 17.664 25.112C17.664 23.928 17.44 22.976 16.992 22.256C16.56 21.52 15.92 20.984 15.072 20.648C14.24 20.312 13.224 20.144 12.024 20.144H9L9.864 14.912H12.024C13 14.912 13.864 14.752 14.616 14.432C15.368 14.112 15.96 13.632 16.392 12.992C16.824 12.336 17.04 11.528 17.04 10.568C17.04 9.32 16.592 8.336 15.696 7.616C14.8 6.896 13.64 6.536 12.216 6.536C10.888 6.536 9.68 6.792 8.592 7.304C7.52 7.816 6.512 8.52 5.568 9.416L1.68 5.384C3.2 3.912 4.904 2.8 6.792 2.048C8.68 1.28 10.768 0.895997 13.056 0.895997Z" fill="#121212"/>
</svg>
