<svg width="20" height="16" viewBox="0 0 20 16" fill="none" xmlns="http://www.w3.org/2000/svg">
<path d="M2.03004 15.2253H0C2.40684e-08 13.6101 0.641637 12.0611 1.78376 10.919C2.92588 9.77684 4.47493 9.1352 6.09013 9.1352C7.70534 9.1352 9.25439 9.77684 10.3965 10.919C11.5386 12.0611 12.1803 13.6101 12.1803 15.2253H10.1502C10.1502 14.1485 9.72246 13.1158 8.96105 12.3544C8.19964 11.593 7.16694 11.1652 6.09013 11.1652C5.01333 11.1652 3.98063 11.593 3.21922 12.3544C2.4578 13.1158 2.03004 14.1485 2.03004 15.2253ZM14.2042 11.5814L11.4576 8.84084L12.8908 7.40154L14.2022 8.71295L18.5668 4.35648L20 5.79375L14.2022 11.5794L14.2042 11.5814ZM6.09013 8.12018C5.01333 8.12018 3.98063 7.69242 3.21922 6.93101C2.4578 6.16959 2.03004 5.13689 2.03004 4.06009C2.03004 2.98329 2.4578 1.95059 3.21922 1.18917C3.98063 0.427758 5.01333 0 6.09013 0C7.16694 0 8.19964 0.427758 8.96105 1.18917C9.72246 1.95059 10.1502 2.98329 10.1502 4.06009C10.1502 5.13689 9.72246 6.16959 8.96105 6.93101C8.19964 7.69242 7.16694 8.12018 6.09013 8.12018ZM6.09013 2.03004C5.69261 2.03045 5.30395 2.14756 4.97237 2.36684C4.6408 2.58612 4.3809 2.89793 4.22493 3.26358C4.06896 3.62923 4.02377 4.03263 4.09498 4.42373C4.16619 4.81483 4.35066 5.17641 4.6255 5.46362C4.90034 5.75083 5.25346 5.95102 5.64105 6.03937C6.02863 6.12771 6.43363 6.10032 6.80578 5.96058C7.17794 5.82084 7.50088 5.57491 7.73454 5.25331C7.9682 4.9317 8.10229 4.54857 8.12018 4.15144V4.55745V4.06009C8.12018 3.52169 7.9063 3.00534 7.52559 2.62463C7.14488 2.24392 6.62854 2.03004 6.09013 2.03004Z" fill="#25D366"/>
</svg>
