<svg width="62" height="13" viewBox="0 0 62 13" fill="none" xmlns="http://www.w3.org/2000/svg">
<path d="M3.176 5.476H9.242V7.744H3.176V5.476ZM3.392 10.66H10.25V13H0.494V0.399999H10.016V2.74H3.392V10.66ZM11.0071 13L16.4251 5.53V7.654L11.2411 0.399999H14.5531L18.1351 5.458L16.7491 5.476L20.2771 0.399999H23.4451L18.2971 7.528V5.44L23.7511 13H20.3851L16.6771 7.654H18.0091L14.3551 13H11.0071ZM27.3618 13V2.776H23.3298V0.399999H34.3098V2.776H30.2778V13H27.3618ZM35.8788 13V0.399999H41.3328C42.4608 0.399999 43.4328 0.585999 44.2488 0.957999C45.0648 1.318 45.6948 1.84 46.1388 2.524C46.5828 3.208 46.8048 4.024 46.8048 4.972C46.8048 5.908 46.5828 6.718 46.1388 7.402C45.6948 8.074 45.0648 8.59 44.2488 8.95C43.4328 9.31 42.4608 9.49 41.3328 9.49H37.4988L38.7948 8.212V13H35.8788ZM43.8888 13L40.7388 8.428H43.8528L47.0388 13H43.8888ZM38.7948 8.536L37.4988 7.168H41.1708C42.0708 7.168 42.7428 6.976 43.1868 6.592C43.6308 6.196 43.8528 5.656 43.8528 4.972C43.8528 4.276 43.6308 3.736 43.1868 3.352C42.7428 2.968 42.0708 2.776 41.1708 2.776H37.4988L38.7948 1.39V8.536ZM47.4591 13L53.0751 0.399999H55.9551L61.5891 13H58.5291L53.9211 1.876H55.0731L50.4471 13H47.4591ZM50.2671 10.3L51.0411 8.086H57.5211L58.3131 10.3H50.2671Z" fill="#121212"/>
</svg>
