<svg width="410" height="152" viewBox="0 0 410 152" fill="none" xmlns="http://www.w3.org/2000/svg">
<path d="M128.741 16.528H126.341V38.128H128.741V46H110.597V38.128H112.901V21.328L104.741 46H97.6375L89.2375 21.568V38.128H91.5415V46H75.7975V38.128H78.1975V16.528H75.7975V8.656H97.7815L102.773 23.632L107.573 8.656H128.741V16.528ZM134.481 46V38.128H136.881V16.528H134.481V8.656H166.881V23.152H156.129V16.528H150.321V24.112H154.545V29.584H150.321V38.128H156.129V30.544H166.881V46H134.481ZM145.665 5.776V5.056L150.897 0.447997H162.945V1.696L155.121 5.776H145.665ZM208.348 20.272H200.092V16.528H197.02V38.128H200.38V46H180.22V38.128H183.58V16.528H180.508V20.272H172.252V8.656H208.348V20.272ZM231.881 46.672C226.025 46.672 221.497 45.136 218.297 42.064C215.129 38.992 213.545 34.08 213.545 27.328C213.545 20.576 215.129 15.664 218.297 12.592C221.497 9.52 226.025 7.984 231.881 7.984C237.737 7.984 242.249 9.52 245.417 12.592C248.617 15.664 250.217 20.576 250.217 27.328C250.217 34.08 248.617 38.992 245.417 42.064C242.249 45.136 237.737 46.672 231.881 46.672ZM231.881 38.128C232.969 38.128 233.785 37.84 234.329 37.264C234.873 36.688 235.145 35.792 235.145 34.576V20.08C235.145 18.864 234.873 17.968 234.329 17.392C233.785 16.816 232.969 16.528 231.881 16.528C230.793 16.528 229.977 16.816 229.433 17.392C228.889 17.968 228.617 18.864 228.617 20.08V34.576C228.617 35.824 228.889 36.736 229.433 37.312C229.977 37.856 230.793 38.128 231.881 38.128ZM255.689 38.128H258.089V16.576H255.689V8.656H275.177C280.521 8.656 284.761 10.128 287.897 13.072C291.065 15.984 292.649 20.736 292.649 27.328C292.649 33.92 291.065 38.688 287.897 41.632C284.761 44.544 280.521 46 275.177 46H255.689V38.128ZM274.313 38.128C275.401 38.128 276.217 37.84 276.761 37.264C277.305 36.688 277.577 35.792 277.577 34.576V20.08C277.577 17.712 276.489 16.528 274.313 16.528H271.529V38.128H274.313ZM316.155 46.672C310.299 46.672 305.771 45.136 302.571 42.064C299.403 38.992 297.819 34.08 297.819 27.328C297.819 20.576 299.403 15.664 302.571 12.592C305.771 9.52 310.299 7.984 316.155 7.984C322.011 7.984 326.523 9.52 329.691 12.592C332.891 15.664 334.491 20.576 334.491 27.328C334.491 34.08 332.891 38.992 329.691 42.064C326.523 45.136 322.011 46.672 316.155 46.672ZM316.155 38.128C317.243 38.128 318.059 37.84 318.603 37.264C319.147 36.688 319.419 35.792 319.419 34.576V20.08C319.419 18.864 319.147 17.968 318.603 17.392C318.059 16.816 317.243 16.528 316.155 16.528C315.067 16.528 314.251 16.816 313.707 17.392C313.163 17.968 312.891 18.864 312.891 20.08V34.576C312.891 35.824 313.163 36.736 313.707 37.312C314.251 37.856 315.067 38.128 316.155 38.128ZM135.163 70.528H132.763V92.128H135.163V100H117.019V92.128H119.323V75.328L111.163 100H104.059L95.6594 75.568V92.128H97.9634V100H82.2194V92.128H84.6194V70.528H82.2194V62.656H104.203L109.195 77.632L113.995 62.656H135.163V70.528ZM176.135 92.128H178.055V100H159.239V92.128H162.119L161.351 88.288H154.823L154.055 92.128H156.935V100H140.519V92.128H142.439L150.551 62.656H168.023L176.135 92.128ZM155.879 83.2H160.295L158.327 73.648H157.847L155.879 83.2ZM183.415 92.128H185.815V70.528H183.415V62.656H205.447C209.575 62.656 212.727 63.504 214.903 65.2C217.079 66.896 218.167 69.648 218.167 73.456C218.167 75.6 217.735 77.456 216.871 79.024C216.007 80.592 214.775 81.68 213.175 82.288L213.223 82.768C216.295 83.248 217.831 85.136 217.831 88.432V92.128H220.087V100H204.871V88.72C204.871 87.472 204.679 86.528 204.295 85.888C203.943 85.248 203.367 84.816 202.567 84.592C201.799 84.368 200.695 84.256 199.255 84.256V92.128H202.423V100H183.415V92.128ZM201.847 78.4C202.775 78.4 203.463 78.16 203.911 77.68C204.391 77.168 204.631 76.384 204.631 75.328V73.6C204.631 72.544 204.391 71.776 203.911 71.296C203.463 70.784 202.775 70.528 201.847 70.528H199.255V78.4H201.847ZM225.646 100V92.128H228.046V70.528H225.646V62.656H243.886V70.528H241.486V92.128H243.886V100H225.646ZM285.834 88H283.434V97.6C282.026 98.4 279.962 99.12 277.242 99.76C274.554 100.368 271.642 100.672 268.506 100.672C262.522 100.672 257.834 99.104 254.442 95.968C251.05 92.8 249.354 87.92 249.354 81.328C249.354 74.576 251.034 69.664 254.394 66.592C257.786 63.52 262.618 61.984 268.89 61.984C271.93 61.984 274.778 62.304 277.434 62.944C280.09 63.584 282.09 64.304 283.434 65.104V76.576H271.434V74.32C271.434 72.976 271.146 72.016 270.57 71.44C270.026 70.832 269.146 70.528 267.93 70.528C266.714 70.528 265.818 70.832 265.242 71.44C264.698 72.016 264.426 72.976 264.426 74.32V88.336C264.426 89.68 264.698 90.656 265.242 91.264C265.818 91.84 266.714 92.128 267.93 92.128C269.146 92.128 270.026 91.84 270.57 91.264C271.146 90.656 271.434 89.68 271.434 88.336V88H268.842V80.848H285.834V88ZM326.261 92.128H328.181V100H309.365V92.128H312.245L311.477 88.288H304.949L304.181 92.128H307.061V100H290.645V92.128H292.565L300.677 62.656H318.149L326.261 92.128ZM306.005 83.2H310.421L308.453 73.648H307.973L306.005 83.2Z" fill="#FF0143"/>
<path d="M19.6 145H12.92L12.16 141.08H7.44L6.68 145H0.32L4.88 120.16H15.04L19.6 145ZM11.4 136.4L10 127.52H9.72L8.32 136.4H11.4ZM45.1203 126.28H38.5203V130H43.8403V135.28H38.5203V145H31.6803V120.16H45.5203L45.1203 126.28ZM46.9909 135.36C46.9909 131.84 47.6576 129.293 48.9909 127.72C50.3509 126.147 52.4576 125.36 55.3109 125.36C58.1909 125.36 60.2843 126.133 61.5909 127.68C62.8976 129.227 63.5509 131.773 63.5509 135.32C63.5509 138.84 62.9109 141.4 61.6309 143C60.3509 144.6 58.2576 145.4 55.3509 145.4C52.4443 145.4 50.3243 144.6 48.9909 143C47.6576 141.4 46.9909 138.853 46.9909 135.36ZM56.5909 131.56C56.4309 131.027 56.0043 130.76 55.3109 130.76C54.6176 130.76 54.1776 131.027 53.9909 131.56C53.8043 132.093 53.7109 133.213 53.7109 134.92V135.88C53.7109 137.773 53.8043 139 53.9909 139.56C54.1776 140.12 54.6043 140.4 55.2709 140.4C55.9643 140.4 56.4043 140.12 56.5909 139.56C56.7776 139 56.8709 137.853 56.8709 136.12V134.96C56.8709 133.227 56.7776 132.093 56.5909 131.56ZM73.0712 134.24V145H66.4312V125.84H72.2712L72.6712 127H72.8312C73.4446 126.307 74.0579 125.867 74.6712 125.68C75.3112 125.467 76.3379 125.36 77.7512 125.36L77.4712 131.76H75.6312C74.5912 131.76 73.8979 131.92 73.5512 132.24C73.2312 132.56 73.0712 133.227 73.0712 134.24ZM96.0103 127.24C97.477 125.987 99.0903 125.36 100.85 125.36C102.61 125.36 103.837 125.773 104.53 126.6C105.25 127.4 105.61 128.613 105.61 130.24V145H98.8103V132.52C98.8103 131.853 98.517 131.52 97.9303 131.52C97.1836 131.52 96.557 131.707 96.0503 132.08V145H89.2503V132.52C89.2503 131.853 88.957 131.52 88.3703 131.52C87.6236 131.52 86.997 131.707 86.4903 132.08V145H79.7703V125.84H85.8903L86.2903 127.24H86.4503C87.917 125.987 89.6503 125.36 91.6503 125.36C93.677 125.36 94.997 126.107 95.6103 127.6L96.0103 127.24ZM123.253 130.84L123.053 139.12C123.053 139.627 123.173 139.973 123.413 140.16C123.679 140.32 124.119 140.4 124.733 140.4L124.133 145.24C122.586 145.347 121.733 145.4 121.573 145.4C119.599 145.4 118.346 144.72 117.813 143.36H117.613C116.626 144.72 115.106 145.4 113.053 145.4C111.479 145.4 110.266 144.893 109.413 143.88C108.586 142.867 108.173 141.48 108.173 139.72C108.173 137.507 108.853 135.973 110.213 135.12C111.599 134.267 113.773 133.707 116.733 133.44V132.48C116.733 131.733 116.359 131.36 115.613 131.36C114.333 131.36 112.333 131.747 109.613 132.52L108.613 126.68C112.026 125.8 114.866 125.36 117.133 125.36C119.399 125.36 120.986 125.8 121.893 126.68C122.799 127.56 123.253 128.947 123.253 130.84ZM115.533 140.72C116.519 140.72 117.013 140.2 117.013 139.16V137.2C116.026 137.333 115.319 137.547 114.893 137.84C114.493 138.107 114.293 138.573 114.293 139.24C114.293 140.227 114.706 140.72 115.533 140.72ZM138.634 132.04C137.088 131.373 135.914 131.04 135.114 131.04C134.341 131.04 133.821 131.413 133.554 132.16C133.288 132.907 133.154 134.04 133.154 135.56C133.154 137.053 133.274 138.133 133.514 138.8C133.781 139.467 134.354 139.8 135.234 139.8C136.141 139.8 137.248 139.653 138.554 139.36L139.274 144.48C137.728 144.987 136.288 145.28 134.954 145.36C134.768 145.6 134.674 145.813 134.674 146C134.674 146.187 134.888 146.387 135.314 146.6C136.594 147.24 137.234 148.013 137.234 148.92C137.234 149.827 136.901 150.533 136.234 151.04C135.594 151.573 134.634 151.84 133.354 151.84C132.074 151.84 130.848 151.453 129.674 150.68L131.034 148.16C132.128 148.987 132.888 149.4 133.314 149.4C133.741 149.4 133.954 149.267 133.954 149C133.954 148.76 133.781 148.547 133.434 148.36L132.754 147.96C132.141 147.64 131.834 147.213 131.834 146.68C131.834 146.173 132.034 145.693 132.434 145.24C130.461 144.893 128.968 143.893 127.954 142.24C126.941 140.587 126.434 138.32 126.434 135.44C126.434 132.533 127.101 130.133 128.434 128.24C129.768 126.32 131.701 125.36 134.234 125.36C136.128 125.36 137.834 125.68 139.354 126.32L138.634 132.04ZM156.063 130.84L155.863 139.12C155.863 139.627 155.983 139.973 156.223 140.16C156.49 140.32 156.93 140.4 157.543 140.4L156.943 145.24C155.397 145.347 154.543 145.4 154.383 145.4C152.41 145.4 151.157 144.72 150.623 143.36H150.423C149.437 144.72 147.917 145.4 145.863 145.4C144.29 145.4 143.077 144.893 142.223 143.88C141.397 142.867 140.983 141.48 140.983 139.72C140.983 137.507 141.663 135.973 143.023 135.12C144.41 134.267 146.583 133.707 149.543 133.44V132.48C149.543 131.733 149.17 131.36 148.423 131.36C147.143 131.36 145.143 131.747 142.423 132.52L141.423 126.68C144.837 125.8 147.677 125.36 149.943 125.36C152.21 125.36 153.797 125.8 154.703 126.68C155.61 127.56 156.063 128.947 156.063 130.84ZM148.343 140.72C149.33 140.72 149.823 140.2 149.823 139.16V137.2C148.837 137.333 148.13 137.547 147.703 137.84C147.303 138.107 147.103 138.573 147.103 139.24C147.103 140.227 147.517 140.72 148.343 140.72ZM154.783 118.6V118.92C154.783 120.627 154.543 121.92 154.063 122.8C153.583 123.68 152.623 124.12 151.183 124.12C150.223 124.12 149.157 123.907 147.983 123.48L147.023 123.16V124.56H142.663V124.16C142.663 122.427 142.917 121.133 143.423 120.28C143.93 119.4 144.823 118.96 146.103 118.96C146.53 118.96 147.717 119.213 149.663 119.72L150.463 119.92V118.6H154.783ZM159.525 135.36C159.525 131.84 160.192 129.293 161.525 127.72C162.885 126.147 164.992 125.36 167.845 125.36C170.725 125.36 172.819 126.133 174.125 127.68C175.432 129.227 176.085 131.773 176.085 135.32C176.085 138.84 175.445 141.4 174.165 143C172.885 144.6 170.792 145.4 167.885 145.4C164.979 145.4 162.859 144.6 161.525 143C160.192 141.4 159.525 138.853 159.525 135.36ZM169.125 131.56C168.965 131.027 168.539 130.76 167.845 130.76C167.152 130.76 166.712 131.027 166.525 131.56C166.339 132.093 166.245 133.213 166.245 134.92V135.88C166.245 137.773 166.339 139 166.525 139.56C166.712 140.12 167.139 140.4 167.805 140.4C168.499 140.4 168.939 140.12 169.125 139.56C169.312 139 169.405 137.853 169.405 136.12V134.96C169.405 133.227 169.312 132.093 169.125 131.56ZM205.124 145.24L202.444 145.4C200.391 145.4 199.137 144.72 198.684 143.36H198.484C197.604 144.72 196.257 145.4 194.444 145.4C192.044 145.4 190.351 144.56 189.364 142.88C188.404 141.2 187.924 138.707 187.924 135.4C187.924 132.067 188.471 129.56 189.564 127.88C190.657 126.2 192.231 125.36 194.284 125.36C195.697 125.36 196.791 125.693 197.564 126.36V119.36H204.244V139.12C204.244 139.627 204.351 139.973 204.564 140.16C204.777 140.32 205.164 140.4 205.724 140.4L205.124 145.24ZM196.044 131C195.484 131 195.111 131.347 194.924 132.04C194.737 132.707 194.644 133.68 194.644 134.96C194.644 136.213 194.657 137.067 194.684 137.52C194.711 137.973 194.764 138.44 194.844 138.92C194.951 139.373 195.097 139.693 195.284 139.88C195.497 140.04 195.831 140.12 196.284 140.12C196.764 140.12 197.257 140 197.764 139.76V131.48C197.204 131.16 196.631 131 196.044 131ZM216.027 131.08C215.333 131.08 214.88 131.32 214.667 131.8C214.453 132.253 214.347 132.96 214.347 133.92H217.827V132.96C217.827 131.707 217.227 131.08 216.027 131.08ZM216.187 125.36C218.933 125.36 220.893 126.027 222.067 127.36C223.267 128.667 223.867 130.547 223.867 133C223.867 133.32 223.773 134.76 223.587 137.32H214.467C214.467 139.32 215.387 140.32 217.227 140.32C218.107 140.32 219.827 140.013 222.387 139.4L222.947 144.36C220.707 145.053 218.467 145.4 216.227 145.4C213.48 145.4 211.373 144.507 209.907 142.72C208.44 140.907 207.707 138.453 207.707 135.36C207.707 128.693 210.533 125.36 216.187 125.36ZM250.72 126.2H246.08V145H239.24V126.2H234.32L234.72 120.16H251.12L250.72 126.2ZM260.927 131.08C260.233 131.08 259.78 131.32 259.567 131.8C259.353 132.253 259.247 132.96 259.247 133.92H262.727V132.96C262.727 131.707 262.127 131.08 260.927 131.08ZM261.087 125.36C263.833 125.36 265.793 126.027 266.967 127.36C268.167 128.667 268.767 130.547 268.767 133C268.767 133.32 268.673 134.76 268.487 137.32H259.367C259.367 139.32 260.287 140.32 262.127 140.32C263.007 140.32 264.727 140.013 267.287 139.4L267.847 144.36C265.607 145.053 263.367 145.4 261.127 145.4C258.38 145.4 256.273 144.507 254.807 142.72C253.34 140.907 252.607 138.453 252.607 135.36C252.607 128.693 255.433 125.36 261.087 125.36ZM278.062 134.24V145H271.422V125.84H277.262L277.662 127H277.822C278.435 126.307 279.049 125.867 279.662 125.68C280.302 125.467 281.329 125.36 282.742 125.36L282.462 131.76H280.622C279.582 131.76 278.889 131.92 278.542 132.24C278.222 132.56 278.062 133.227 278.062 134.24ZM299.201 130.84L299.001 139.12C299.001 139.627 299.121 139.973 299.361 140.16C299.628 140.32 300.068 140.4 300.681 140.4L300.081 145.24C298.534 145.347 297.681 145.4 297.521 145.4C295.548 145.4 294.294 144.72 293.761 143.36H293.561C292.574 144.72 291.054 145.4 289.001 145.4C287.428 145.4 286.214 144.893 285.361 143.88C284.534 142.867 284.121 141.48 284.121 139.72C284.121 137.507 284.801 135.973 286.161 135.12C287.548 134.267 289.721 133.707 292.681 133.44V132.48C292.681 131.733 292.308 131.36 291.561 131.36C290.281 131.36 288.281 131.747 285.561 132.52L284.561 126.68C287.974 125.8 290.814 125.36 293.081 125.36C295.348 125.36 296.934 125.8 297.841 126.68C298.748 127.56 299.201 128.947 299.201 130.84ZM291.481 140.72C292.468 140.72 292.961 140.2 292.961 139.16V137.2C291.974 137.333 291.268 137.547 290.841 137.84C290.441 138.107 290.241 138.573 290.241 139.24C290.241 140.227 290.654 140.72 291.481 140.72ZM309.703 144.56V150.48H302.983V125.84H308.503L308.903 127.04H309.103C309.849 125.947 311.316 125.4 313.503 125.4C315.689 125.4 317.223 126.16 318.103 127.68C319.009 129.2 319.463 131.693 319.463 135.16C319.463 138.627 318.983 141.213 318.023 142.92C317.089 144.6 315.356 145.44 312.823 145.44C311.649 145.44 310.663 145.147 309.863 144.56H309.703ZM312.503 139C312.609 138.52 312.676 138.053 312.703 137.6C312.729 137.147 312.743 136.293 312.743 135.04C312.743 133.76 312.649 132.787 312.463 132.12C312.276 131.427 311.889 131.08 311.303 131.08C310.743 131.08 310.183 131.24 309.623 131.56V139.84C310.129 140.08 310.609 140.2 311.063 140.2C311.543 140.2 311.876 140.12 312.063 139.96C312.276 139.773 312.423 139.453 312.503 139ZM330.416 131.08C329.722 131.08 329.269 131.32 329.056 131.8C328.842 132.253 328.736 132.96 328.736 133.92H332.216V132.96C332.216 131.707 331.616 131.08 330.416 131.08ZM330.576 125.36C333.322 125.36 335.282 126.027 336.456 127.36C337.656 128.667 338.256 130.547 338.256 133C338.256 133.32 338.162 134.76 337.976 137.32H328.856C328.856 139.32 329.776 140.32 331.616 140.32C332.496 140.32 334.216 140.013 336.776 139.4L337.336 144.36C335.096 145.053 332.856 145.4 330.616 145.4C327.869 145.4 325.762 144.507 324.296 142.72C322.829 140.907 322.096 138.453 322.096 135.36C322.096 128.693 324.922 125.36 330.576 125.36ZM345.671 145.4C342.498 145.4 340.911 143.64 340.911 140.12V125.84H347.711V138.48C347.711 139.147 348.004 139.48 348.591 139.48C349.338 139.48 349.964 139.293 350.471 138.92V125.84H357.191V144.92H350.831V143.52H350.671C349.204 144.773 347.538 145.4 345.671 145.4ZM371.183 145.04C369.209 145.28 367.489 145.4 366.023 145.4C364.583 145.4 363.449 145.027 362.623 144.28C361.823 143.507 361.423 142.187 361.423 140.32V131.04H359.503V126.08H361.743L362.103 122.4H368.143V126.08H371.703L371.423 131.04H368.103V139C368.103 139.56 368.369 139.84 368.903 139.84C368.956 139.84 369.783 139.8 371.383 139.72L371.183 145.04ZM388.318 130.84L388.118 139.12C388.118 139.627 388.238 139.973 388.478 140.16C388.745 140.32 389.185 140.4 389.798 140.4L389.198 145.24C387.651 145.347 386.798 145.4 386.638 145.4C384.665 145.4 383.411 144.72 382.878 143.36H382.678C381.691 144.72 380.171 145.4 378.118 145.4C376.545 145.4 375.331 144.893 374.478 143.88C373.651 142.867 373.238 141.48 373.238 139.72C373.238 137.507 373.918 135.973 375.278 135.12C376.665 134.267 378.838 133.707 381.798 133.44V132.48C381.798 131.733 381.425 131.36 380.678 131.36C379.398 131.36 377.398 131.747 374.678 132.52L373.678 126.68C377.091 125.8 379.931 125.36 382.198 125.36C384.465 125.36 386.051 125.8 386.958 126.68C387.865 127.56 388.318 128.947 388.318 130.84ZM380.598 140.72C381.585 140.72 382.078 140.2 382.078 139.16V137.2C381.091 137.333 380.385 137.547 379.958 137.84C379.558 138.107 379.358 138.573 379.358 139.24C379.358 140.227 379.771 140.72 380.598 140.72ZM391.06 131.52C391.06 129.573 391.647 128.067 392.82 127C394.02 125.907 395.66 125.36 397.74 125.36C399.82 125.36 401.927 125.627 404.06 126.16L403.38 131.72C400.66 131.107 398.833 130.8 397.9 130.8C397.34 130.8 397.06 131.027 397.06 131.48C397.06 131.773 397.367 132.04 397.98 132.28C400.113 133.053 401.713 133.933 402.78 134.92C403.873 135.907 404.42 137.387 404.42 139.36C404.42 141.333 403.913 142.84 402.9 143.88C401.887 144.893 400.327 145.4 398.22 145.4C396.14 145.4 394.06 145.133 391.98 144.6L392.42 139.2C395.087 139.92 396.807 140.28 397.58 140.28C398.38 140.28 398.78 140.093 398.78 139.72C398.78 139.347 398.487 139.053 397.9 138.84C395.527 137.933 393.793 136.973 392.7 135.96C391.607 134.92 391.06 133.44 391.06 131.52Z" fill="#FF0143"/>
</svg>
