<svg width="548" height="99" viewBox="0 0 548 99" fill="none" xmlns="http://www.w3.org/2000/svg">
<path d="M53.904 16.528H51.504V38.128H53.904V46H35.76V38.128H38.064V21.328L29.904 46H22.8L14.4 21.568V38.128H16.704V46H0.96V38.128H3.36V16.528H0.96V8.656H22.944L27.936 23.632L32.736 8.656H53.904V16.528ZM59.6438 46V38.128H62.0438V16.528H59.6438V8.656H92.0438V23.152H81.2918V16.528H75.4838V24.112H79.7078V29.584H75.4838V38.128H81.2918V30.544H92.0438V46H59.6438ZM70.8278 5.776V5.056L76.0598 0.447997H88.1078V1.696L80.2838 5.776H70.8278ZM133.511 20.272H125.255V16.528H122.183V38.128H125.543V46H105.383V38.128H108.743V16.528H105.671V20.272H97.4145V8.656H133.511V20.272ZM157.044 46.672C151.188 46.672 146.66 45.136 143.46 42.064C140.292 38.992 138.708 34.08 138.708 27.328C138.708 20.576 140.292 15.664 143.46 12.592C146.66 9.52 151.188 7.984 157.044 7.984C162.9 7.984 167.412 9.52 170.58 12.592C173.78 15.664 175.38 20.576 175.38 27.328C175.38 34.08 173.78 38.992 170.58 42.064C167.412 45.136 162.9 46.672 157.044 46.672ZM157.044 38.128C158.132 38.128 158.948 37.84 159.492 37.264C160.036 36.688 160.308 35.792 160.308 34.576V20.08C160.308 18.864 160.036 17.968 159.492 17.392C158.948 16.816 158.132 16.528 157.044 16.528C155.956 16.528 155.14 16.816 154.596 17.392C154.052 17.968 153.78 18.864 153.78 20.08V34.576C153.78 35.824 154.052 36.736 154.596 37.312C155.14 37.856 155.956 38.128 157.044 38.128ZM180.851 38.128H183.251V16.576H180.851V8.656H200.339C205.683 8.656 209.923 10.128 213.059 13.072C216.227 15.984 217.811 20.736 217.811 27.328C217.811 33.92 216.227 38.688 213.059 41.632C209.923 44.544 205.683 46 200.339 46H180.851V38.128ZM199.475 38.128C200.563 38.128 201.379 37.84 201.923 37.264C202.467 36.688 202.739 35.792 202.739 34.576V20.08C202.739 17.712 201.651 16.528 199.475 16.528H196.691V38.128H199.475ZM241.317 46.672C235.461 46.672 230.933 45.136 227.733 42.064C224.565 38.992 222.981 34.08 222.981 27.328C222.981 20.576 224.565 15.664 227.733 12.592C230.933 9.52 235.461 7.984 241.317 7.984C247.173 7.984 251.685 9.52 254.853 12.592C258.053 15.664 259.653 20.576 259.653 27.328C259.653 34.08 258.053 38.992 254.853 42.064C251.685 45.136 247.173 46.672 241.317 46.672ZM241.317 38.128C242.405 38.128 243.221 37.84 243.765 37.264C244.309 36.688 244.581 35.792 244.581 34.576V20.08C244.581 18.864 244.309 17.968 243.765 17.392C243.221 16.816 242.405 16.528 241.317 16.528C240.229 16.528 239.413 16.816 238.869 17.392C238.325 17.968 238.053 18.864 238.053 20.08V34.576C238.053 35.824 238.325 36.736 238.869 37.312C239.413 37.856 240.229 38.128 241.317 38.128ZM336.3 16.528H333.9V38.128H336.3V46H318.156V38.128H320.46V21.328L312.3 46H305.196L296.796 21.568V38.128H299.1V46H283.356V38.128H285.756V16.528H283.356V8.656H305.34L310.332 23.632L315.132 8.656H336.3V16.528ZM377.271 38.128H379.191V46H360.375V38.128H363.255L362.487 34.288H355.959L355.191 38.128H358.071V46H341.655V38.128H343.575L351.687 8.656H369.159L377.271 38.128ZM357.015 29.2H361.431L359.463 19.648H358.983L357.015 29.2ZM384.551 38.128H386.951V16.528H384.551V8.656H406.583C410.711 8.656 413.863 9.504 416.039 11.2C418.215 12.896 419.303 15.648 419.303 19.456C419.303 21.6 418.871 23.456 418.007 25.024C417.143 26.592 415.911 27.68 414.311 28.288L414.359 28.768C417.431 29.248 418.967 31.136 418.967 34.432V38.128H421.223V46H406.007V34.72C406.007 33.472 405.815 32.528 405.431 31.888C405.079 31.248 404.503 30.816 403.703 30.592C402.935 30.368 401.831 30.256 400.391 30.256V38.128H403.559V46H384.551V38.128ZM402.983 24.4C403.911 24.4 404.599 24.16 405.047 23.68C405.527 23.168 405.767 22.384 405.767 21.328V19.6C405.767 18.544 405.527 17.776 405.047 17.296C404.599 16.784 403.911 16.528 402.983 16.528H400.391V24.4H402.983ZM426.782 46V38.128H429.182V16.528H426.782V8.656H445.022V16.528H442.622V38.128H445.022V46H426.782ZM486.97 34H484.57V43.6C483.162 44.4 481.098 45.12 478.378 45.76C475.69 46.368 472.778 46.672 469.642 46.672C463.658 46.672 458.97 45.104 455.578 41.968C452.186 38.8 450.49 33.92 450.49 27.328C450.49 20.576 452.17 15.664 455.53 12.592C458.922 9.52 463.754 7.984 470.026 7.984C473.066 7.984 475.914 8.304 478.57 8.944C481.226 9.584 483.226 10.304 484.57 11.104V22.576H472.57V20.32C472.57 18.976 472.282 18.016 471.706 17.44C471.162 16.832 470.282 16.528 469.066 16.528C467.85 16.528 466.954 16.832 466.378 17.44C465.834 18.016 465.562 18.976 465.562 20.32V34.336C465.562 35.68 465.834 36.656 466.378 37.264C466.954 37.84 467.85 38.128 469.066 38.128C470.282 38.128 471.162 37.84 471.706 37.264C472.282 36.656 472.57 35.68 472.57 34.336V34H469.978V26.848H486.97V34ZM527.397 38.128H529.317V46H510.501V38.128H513.381L512.613 34.288H506.085L505.317 38.128H508.197V46H491.781V38.128H493.701L501.813 8.656H519.285L527.397 38.128ZM507.141 29.2H511.557L509.589 19.648H509.109L507.141 29.2Z" fill="#FF0143"/>
<path d="M102.68 90H97.336L96.728 86.864H92.952L92.344 90H87.256L90.904 70.128H99.032L102.68 90ZM96.12 83.12L95 76.016H94.776L93.656 83.12H96.12ZM123.096 75.024H117.816V78H122.072V82.224H117.816V90H112.344V70.128H123.416L123.096 75.024ZM124.593 82.288C124.593 79.472 125.126 77.4347 126.193 76.176C127.281 74.9173 128.966 74.288 131.249 74.288C133.553 74.288 135.227 74.9067 136.273 76.144C137.318 77.3813 137.841 79.4187 137.841 82.256C137.841 85.072 137.329 87.12 136.305 88.4C135.281 89.68 133.606 90.32 131.281 90.32C128.955 90.32 127.259 89.68 126.193 88.4C125.126 87.12 124.593 85.0827 124.593 82.288ZM132.273 79.248C132.145 78.8213 131.803 78.608 131.249 78.608C130.694 78.608 130.342 78.8213 130.193 79.248C130.043 79.6747 129.969 80.5707 129.969 81.936V82.704C129.969 84.2187 130.043 85.2 130.193 85.648C130.342 86.096 130.683 86.32 131.217 86.32C131.771 86.32 132.123 86.096 132.273 85.648C132.422 85.2 132.497 84.2827 132.497 82.896V81.968C132.497 80.5813 132.422 79.6747 132.273 79.248ZM145.457 81.392V90H140.145V74.672H144.817L145.137 75.6H145.265C145.756 75.0453 146.246 74.6933 146.737 74.544C147.249 74.3733 148.07 74.288 149.201 74.288L148.977 79.408H147.505C146.673 79.408 146.118 79.536 145.841 79.792C145.585 80.048 145.457 80.5813 145.457 81.392ZM163.808 75.792C164.982 74.7893 166.272 74.288 167.68 74.288C169.088 74.288 170.07 74.6187 170.624 75.28C171.2 75.92 171.488 76.8907 171.488 78.192V90H166.048V80.016C166.048 79.4827 165.814 79.216 165.344 79.216C164.747 79.216 164.246 79.3653 163.84 79.664V90H158.4V80.016C158.4 79.4827 158.166 79.216 157.696 79.216C157.099 79.216 156.598 79.3653 156.192 79.664V90H150.816V74.672H155.712L156.032 75.792H156.16C157.334 74.7893 158.72 74.288 160.32 74.288C161.942 74.288 162.998 74.8853 163.488 76.08L163.808 75.792ZM185.602 78.672L185.442 85.296C185.442 85.7013 185.538 85.9787 185.73 86.128C185.943 86.256 186.295 86.32 186.786 86.32L186.306 90.192C185.069 90.2773 184.386 90.32 184.258 90.32C182.679 90.32 181.677 89.776 181.25 88.688H181.09C180.301 89.776 179.085 90.32 177.442 90.32C176.183 90.32 175.213 89.9147 174.53 89.104C173.869 88.2933 173.538 87.184 173.538 85.776C173.538 84.0053 174.082 82.7787 175.17 82.096C176.279 81.4133 178.018 80.9653 180.386 80.752V79.984C180.386 79.3867 180.087 79.088 179.49 79.088C178.466 79.088 176.866 79.3973 174.69 80.016L173.89 75.344C176.621 74.64 178.893 74.288 180.706 74.288C182.519 74.288 183.789 74.64 184.514 75.344C185.239 76.048 185.602 77.1573 185.602 78.672ZM179.426 86.576C180.215 86.576 180.61 86.16 180.61 85.328V83.76C179.821 83.8667 179.255 84.0373 178.914 84.272C178.594 84.4853 178.434 84.8587 178.434 85.392C178.434 86.1813 178.765 86.576 179.426 86.576ZM197.908 79.632C196.67 79.0987 195.732 78.832 195.092 78.832C194.473 78.832 194.057 79.1307 193.844 79.728C193.63 80.3253 193.524 81.232 193.524 82.448C193.524 83.6427 193.62 84.5067 193.812 85.04C194.025 85.5733 194.484 85.84 195.188 85.84C195.913 85.84 196.798 85.7227 197.844 85.488L198.42 89.584C197.182 89.9893 196.03 90.224 194.964 90.288C194.814 90.48 194.74 90.6507 194.74 90.8C194.74 90.9493 194.91 91.1093 195.252 91.28C196.276 91.792 196.788 92.4107 196.788 93.136C196.788 93.8613 196.521 94.4267 195.988 94.832C195.476 95.2587 194.708 95.472 193.684 95.472C192.66 95.472 191.678 95.1627 190.74 94.544L191.828 92.528C192.702 93.1893 193.31 93.52 193.652 93.52C193.993 93.52 194.164 93.4133 194.164 93.2C194.164 93.008 194.025 92.8373 193.748 92.688L193.204 92.368C192.713 92.112 192.468 91.7707 192.468 91.344C192.468 90.9387 192.628 90.5547 192.948 90.192C191.369 89.9147 190.174 89.1147 189.364 87.792C188.553 86.4693 188.148 84.656 188.148 82.352C188.148 80.0267 188.681 78.1067 189.748 76.592C190.814 75.056 192.361 74.288 194.388 74.288C195.902 74.288 197.268 74.544 198.484 75.056L197.908 79.632ZM211.851 78.672L211.691 85.296C211.691 85.7013 211.787 85.9787 211.979 86.128C212.192 86.256 212.544 86.32 213.035 86.32L212.555 90.192C211.317 90.2773 210.635 90.32 210.507 90.32C208.928 90.32 207.925 89.776 207.499 88.688H207.339C206.549 89.776 205.333 90.32 203.691 90.32C202.432 90.32 201.461 89.9147 200.779 89.104C200.117 88.2933 199.787 87.184 199.787 85.776C199.787 84.0053 200.331 82.7787 201.419 82.096C202.528 81.4133 204.267 80.9653 206.635 80.752V79.984C206.635 79.3867 206.336 79.088 205.739 79.088C204.715 79.088 203.115 79.3973 200.939 80.016L200.139 75.344C202.869 74.64 205.141 74.288 206.955 74.288C208.768 74.288 210.037 74.64 210.763 75.344C211.488 76.048 211.851 77.1573 211.851 78.672ZM205.675 86.576C206.464 86.576 206.859 86.16 206.859 85.328V83.76C206.069 83.8667 205.504 84.0373 205.163 84.272C204.843 84.4853 204.683 84.8587 204.683 85.392C204.683 86.1813 205.013 86.576 205.675 86.576ZM210.827 68.88V69.136C210.827 70.5013 210.635 71.536 210.251 72.24C209.867 72.944 209.099 73.296 207.947 73.296C207.179 73.296 206.325 73.1253 205.387 72.784L204.619 72.528V73.648H201.131V73.328C201.131 71.9413 201.333 70.9067 201.739 70.224C202.144 69.52 202.859 69.168 203.883 69.168C204.224 69.168 205.173 69.3707 206.731 69.776L207.371 69.936V68.88H210.827ZM214.62 82.288C214.62 79.472 215.154 77.4347 216.22 76.176C217.308 74.9173 218.994 74.288 221.276 74.288C223.58 74.288 225.255 74.9067 226.3 76.144C227.346 77.3813 227.868 79.4187 227.868 82.256C227.868 85.072 227.356 87.12 226.332 88.4C225.308 89.68 223.634 90.32 221.308 90.32C218.983 90.32 217.287 89.68 216.22 88.4C215.154 87.12 214.62 85.0827 214.62 82.288ZM222.3 79.248C222.172 78.8213 221.831 78.608 221.276 78.608C220.722 78.608 220.37 78.8213 220.22 79.248C220.071 79.6747 219.996 80.5707 219.996 81.936V82.704C219.996 84.2187 220.071 85.2 220.22 85.648C220.37 86.096 220.711 86.32 221.244 86.32C221.799 86.32 222.151 86.096 222.3 85.648C222.45 85.2 222.524 84.2827 222.524 82.896V81.968C222.524 80.5813 222.45 79.6747 222.3 79.248ZM251.099 90.192L248.955 90.32C247.313 90.32 246.31 89.776 245.947 88.688H245.787C245.083 89.776 244.006 90.32 242.555 90.32C240.635 90.32 239.281 89.648 238.491 88.304C237.723 86.96 237.339 84.9653 237.339 82.32C237.339 79.6533 237.777 77.648 238.651 76.304C239.526 74.96 240.785 74.288 242.427 74.288C243.558 74.288 244.433 74.5547 245.051 75.088V69.488H250.395V85.296C250.395 85.7013 250.481 85.9787 250.651 86.128C250.822 86.256 251.131 86.32 251.579 86.32L251.099 90.192ZM243.835 78.8C243.387 78.8 243.089 79.0773 242.939 79.632C242.79 80.1653 242.715 80.944 242.715 81.968C242.715 82.9707 242.726 83.6533 242.747 84.016C242.769 84.3787 242.811 84.752 242.875 85.136C242.961 85.4987 243.078 85.7547 243.227 85.904C243.398 86.032 243.665 86.096 244.027 86.096C244.411 86.096 244.806 86 245.211 85.808V79.184C244.763 78.928 244.305 78.8 243.835 78.8ZM259.821 78.864C259.267 78.864 258.904 79.056 258.733 79.44C258.563 79.8027 258.477 80.368 258.477 81.136H261.261V80.368C261.261 79.3653 260.781 78.864 259.821 78.864ZM259.949 74.288C262.147 74.288 263.715 74.8213 264.653 75.888C265.613 76.9333 266.093 78.4373 266.093 80.4C266.093 80.656 266.019 81.808 265.869 83.856H258.573C258.573 85.456 259.309 86.256 260.781 86.256C261.485 86.256 262.861 86.0107 264.909 85.52L265.357 89.488C263.565 90.0427 261.773 90.32 259.981 90.32C257.784 90.32 256.099 89.6053 254.925 88.176C253.752 86.7253 253.165 84.7627 253.165 82.288C253.165 76.9547 255.427 74.288 259.949 74.288ZM287.576 74.96H283.864V90H278.392V74.96H274.456L274.776 70.128H287.896L287.576 74.96ZM295.741 78.864C295.187 78.864 294.824 79.056 294.653 79.44C294.483 79.8027 294.397 80.368 294.397 81.136H297.181V80.368C297.181 79.3653 296.701 78.864 295.741 78.864ZM295.869 74.288C298.067 74.288 299.635 74.8213 300.573 75.888C301.533 76.9333 302.013 78.4373 302.013 80.4C302.013 80.656 301.939 81.808 301.789 83.856H294.493C294.493 85.456 295.229 86.256 296.701 86.256C297.405 86.256 298.781 86.0107 300.829 85.52L301.277 89.488C299.485 90.0427 297.693 90.32 295.901 90.32C293.704 90.32 292.019 89.6053 290.845 88.176C289.672 86.7253 289.085 84.7627 289.085 82.288C289.085 76.9547 291.347 74.288 295.869 74.288ZM309.45 81.392V90H304.138V74.672H308.81L309.13 75.6H309.258C309.748 75.0453 310.239 74.6933 310.73 74.544C311.242 74.3733 312.063 74.288 313.194 74.288L312.97 79.408H311.498C310.666 79.408 310.111 79.536 309.834 79.792C309.578 80.048 309.45 80.5813 309.45 81.392ZM326.361 78.672L326.201 85.296C326.201 85.7013 326.297 85.9787 326.489 86.128C326.702 86.256 327.054 86.32 327.545 86.32L327.065 90.192C325.827 90.2773 325.145 90.32 325.017 90.32C323.438 90.32 322.435 89.776 322.009 88.688H321.849C321.059 89.776 319.843 90.32 318.201 90.32C316.942 90.32 315.971 89.9147 315.289 89.104C314.627 88.2933 314.297 87.184 314.297 85.776C314.297 84.0053 314.841 82.7787 315.929 82.096C317.038 81.4133 318.777 80.9653 321.145 80.752V79.984C321.145 79.3867 320.846 79.088 320.249 79.088C319.225 79.088 317.625 79.3973 315.449 80.016L314.649 75.344C317.379 74.64 319.651 74.288 321.465 74.288C323.278 74.288 324.547 74.64 325.273 75.344C325.998 76.048 326.361 77.1573 326.361 78.672ZM320.185 86.576C320.974 86.576 321.369 86.16 321.369 85.328V83.76C320.579 83.8667 320.014 84.0373 319.673 84.272C319.353 84.4853 319.193 84.8587 319.193 85.392C319.193 86.1813 319.523 86.576 320.185 86.576ZM334.762 89.648V94.384H329.386V74.672H333.802L334.122 75.632H334.282C334.88 74.7573 336.053 74.32 337.802 74.32C339.552 74.32 340.778 74.928 341.482 76.144C342.208 77.36 342.57 79.3547 342.57 82.128C342.57 84.9013 342.186 86.9707 341.418 88.336C340.672 89.68 339.285 90.352 337.258 90.352C336.32 90.352 335.53 90.1173 334.89 89.648H334.762ZM337.002 85.2C337.088 84.816 337.141 84.4427 337.162 84.08C337.184 83.7173 337.194 83.0347 337.194 82.032C337.194 81.008 337.12 80.2293 336.97 79.696C336.821 79.1413 336.512 78.864 336.042 78.864C335.594 78.864 335.146 78.992 334.698 79.248V85.872C335.104 86.064 335.488 86.16 335.85 86.16C336.234 86.16 336.501 86.096 336.65 85.968C336.821 85.8187 336.938 85.5627 337.002 85.2ZM351.333 78.864C350.778 78.864 350.415 79.056 350.245 79.44C350.074 79.8027 349.989 80.368 349.989 81.136H352.773V80.368C352.773 79.3653 352.293 78.864 351.333 78.864ZM351.461 74.288C353.658 74.288 355.226 74.8213 356.165 75.888C357.125 76.9333 357.605 78.4373 357.605 80.4C357.605 80.656 357.53 81.808 357.381 83.856H350.085C350.085 85.456 350.821 86.256 352.293 86.256C352.997 86.256 354.373 86.0107 356.421 85.52L356.869 89.488C355.077 90.0427 353.285 90.32 351.493 90.32C349.295 90.32 347.61 89.6053 346.437 88.176C345.263 86.7253 344.677 84.7627 344.677 82.288C344.677 76.9547 346.938 74.288 351.461 74.288ZM363.537 90.32C360.998 90.32 359.729 88.912 359.729 86.096V74.672H365.169V84.784C365.169 85.3173 365.403 85.584 365.873 85.584C366.47 85.584 366.971 85.4347 367.377 85.136V74.672H372.753V89.936H367.665V88.816H367.537C366.363 89.8187 365.03 90.32 363.537 90.32ZM383.946 90.032C382.368 90.224 380.992 90.32 379.818 90.32C378.666 90.32 377.76 90.0213 377.098 89.424C376.458 88.8053 376.138 87.7493 376.138 86.256V78.832H374.602V74.864H376.394L376.682 71.92H381.514V74.864H384.362L384.138 78.832H381.482V85.2C381.482 85.648 381.696 85.872 382.122 85.872C382.165 85.872 382.826 85.84 384.106 85.776L383.946 90.032ZM397.654 78.672L397.494 85.296C397.494 85.7013 397.59 85.9787 397.782 86.128C397.996 86.256 398.348 86.32 398.838 86.32L398.358 90.192C397.121 90.2773 396.438 90.32 396.31 90.32C394.732 90.32 393.729 89.776 393.302 88.688H393.142C392.353 89.776 391.137 90.32 389.494 90.32C388.236 90.32 387.265 89.9147 386.582 89.104C385.921 88.2933 385.59 87.184 385.59 85.776C385.59 84.0053 386.134 82.7787 387.222 82.096C388.332 81.4133 390.07 80.9653 392.438 80.752V79.984C392.438 79.3867 392.14 79.088 391.542 79.088C390.518 79.088 388.918 79.3973 386.742 80.016L385.942 75.344C388.673 74.64 390.945 74.288 392.758 74.288C394.572 74.288 395.841 74.64 396.566 75.344C397.292 76.048 397.654 77.1573 397.654 78.672ZM391.478 86.576C392.268 86.576 392.662 86.16 392.662 85.328V83.76C391.873 83.8667 391.308 84.0373 390.966 84.272C390.646 84.4853 390.486 84.8587 390.486 85.392C390.486 86.1813 390.817 86.576 391.478 86.576ZM399.848 79.216C399.848 77.6587 400.317 76.4533 401.256 75.6C402.216 74.7253 403.528 74.288 405.192 74.288C406.856 74.288 408.541 74.5013 410.248 74.928L409.704 79.376C407.528 78.8853 406.067 78.64 405.32 78.64C404.872 78.64 404.648 78.8213 404.648 79.184C404.648 79.4187 404.893 79.632 405.384 79.824C407.091 80.4427 408.371 81.1467 409.224 81.936C410.099 82.7253 410.536 83.9093 410.536 85.488C410.536 87.0667 410.131 88.272 409.32 89.104C408.509 89.9147 407.261 90.32 405.576 90.32C403.912 90.32 402.248 90.1067 400.584 89.68L400.936 85.36C403.069 85.936 404.445 86.224 405.064 86.224C405.704 86.224 406.024 86.0747 406.024 85.776C406.024 85.4773 405.789 85.2427 405.32 85.072C403.421 84.3467 402.035 83.5787 401.16 82.768C400.285 81.936 399.848 80.752 399.848 79.216Z" fill="#FF0143"/>
</svg>
