<svg width="12" height="14" viewBox="0 0 12 14" fill="none" xmlns="http://www.w3.org/2000/svg">
<path fill-rule="evenodd" clip-rule="evenodd" d="M6 0.390137C5.40857 0.390137 4.42029 0.611465 3.49029 0.85785C2.53886 1.10841 1.57972 1.40491 1.01572 1.58447C0.779911 1.66035 0.570853 1.79951 0.412562 1.98596C0.25427 2.1724 0.153165 2.39858 0.120862 2.6385C-0.389995 6.3777 0.795432 9.1489 2.23372 10.9822C2.84364 11.7664 3.57088 12.457 4.39114 13.0309C4.722 13.2589 5.02886 13.4335 5.28943 13.5529C5.52943 13.6632 5.78743 13.7534 6 13.7534C6.21257 13.7534 6.46971 13.6632 6.71057 13.5529C7.0247 13.4041 7.32522 13.2295 7.60886 13.0309C8.42913 12.457 9.15638 11.7664 9.76628 10.9822C11.2046 9.1489 12.39 6.3777 11.8791 2.6385C11.8469 2.39846 11.7458 2.17216 11.5875 1.98557C11.4292 1.79898 11.2202 1.65967 10.9843 1.58364C10.1655 1.32207 9.34045 1.07979 8.50971 0.857014C7.57971 0.6123 6.59143 0.390137 6 0.390137ZM6 4.56614C6.30363 4.5657 6.59763 4.66999 6.82992 4.86052C7.0622 5.05106 7.21779 5.31555 7.26912 5.60715C7.32045 5.89875 7.26422 6.19865 7.11037 6.45372C6.95652 6.70879 6.715 6.90258 6.42857 7.00076L6.75857 8.66281C6.77058 8.72326 6.76872 8.78555 6.75312 8.84522C6.73752 8.90489 6.70858 8.96046 6.66836 9.00795C6.62814 9.05544 6.57764 9.09368 6.52048 9.11992C6.46332 9.14616 6.4009 9.15977 6.33771 9.15975H5.66229C5.59917 9.15964 5.53685 9.14595 5.4798 9.11965C5.42274 9.09335 5.37235 9.0551 5.33222 9.00763C5.2921 8.96015 5.26323 8.90462 5.24768 8.84502C5.23214 8.78541 5.23029 8.72319 5.24229 8.66281L5.57143 7.00076C5.285 6.90258 5.04348 6.70879 4.88963 6.45372C4.73578 6.19865 4.67955 5.89875 4.73088 5.60715C4.78221 5.31555 4.9378 5.05106 5.17008 4.86052C5.40237 4.66999 5.69637 4.5657 6 4.56614Z" fill="#EDEDED"/>
</svg>
