<svg width="324" height="101" viewBox="0 0 324 101" fill="none" xmlns="http://www.w3.org/2000/svg">
<path d="M110.192 38.128H112.112V46H93.296V38.128H96.176L95.408 34.288H88.88L88.112 38.128H90.992V46H74.576V38.128H76.496L84.608 8.656H102.08L110.192 38.128ZM89.936 29.2H94.352L92.384 19.648H91.904L89.936 29.2ZM143.68 8.656H159.424V16.528H157.024V46H143.536L129.472 24.352V38.128H131.776V46H116.032V38.128H118.432V16.528H116.032V8.656H133.36L145.984 27.904V16.528H143.68V8.656ZM163.666 38.128H166.066V16.576H163.666V8.656H183.154C188.498 8.656 192.738 10.128 195.874 13.072C199.042 15.984 200.626 20.736 200.626 27.328C200.626 33.92 199.042 38.688 195.874 41.632C192.738 44.544 188.498 46 183.154 46H163.666V38.128ZM182.29 38.128C183.378 38.128 184.194 37.84 184.738 37.264C185.282 36.688 185.554 35.792 185.554 34.576V20.08C185.554 17.712 184.466 16.528 182.29 16.528H179.506V38.128H182.29ZM204.644 38.128H207.044V16.528H204.644V8.656H226.676C230.804 8.656 233.956 9.504 236.132 11.2C238.308 12.896 239.396 15.648 239.396 19.456C239.396 21.6 238.964 23.456 238.1 25.024C237.236 26.592 236.004 27.68 234.404 28.288L234.452 28.768C237.524 29.248 239.06 31.136 239.06 34.432V38.128H241.316V46H226.1V34.72C226.1 33.472 225.908 32.528 225.524 31.888C225.172 31.248 224.596 30.816 223.796 30.592C223.028 30.368 221.924 30.256 220.484 30.256V38.128H223.652V46H204.644V38.128ZM223.076 24.4C224.004 24.4 224.692 24.16 225.14 23.68C225.62 23.168 225.86 22.384 225.86 21.328V19.6C225.86 18.544 225.62 17.776 225.14 17.296C224.692 16.784 224.004 16.528 223.076 16.528H220.484V24.4H223.076ZM245.435 46V38.128H247.835V16.528H245.435V8.656H277.835V23.152H267.083V16.528H261.275V24.112H265.499V29.584H261.275V38.128H267.083V30.544H277.835V46H245.435ZM256.619 5.776V5.056L261.851 0.447997H273.899V1.696L266.075 5.776H256.619Z" fill="#FF0143"/>
<path d="M122.256 89.504H124.816V100H99.728V89.504H103.568L102.544 84.384H93.84L92.816 89.504H96.656V100H74.768V89.504H77.328L88.144 50.208H111.44L122.256 89.504ZM95.248 77.6H101.136L98.512 64.864H97.872L95.248 77.6ZM133.243 89.504H136.443V60.704H133.243V50.208H162.619C168.123 50.208 172.325 51.3387 175.227 53.6C178.128 55.8613 179.579 59.5307 179.579 64.608C179.579 67.4667 179.003 69.9413 177.851 72.032C176.699 74.1227 175.056 75.5733 172.923 76.384L172.987 77.024C177.083 77.664 179.131 80.1813 179.131 84.576V89.504H182.139V100H161.851V84.96C161.851 83.296 161.595 82.0373 161.083 81.184C160.613 80.3307 159.845 79.7547 158.779 79.456C157.755 79.1573 156.283 79.008 154.363 79.008V89.504H158.587V100H133.243V89.504ZM157.819 71.2C159.056 71.2 159.973 70.88 160.571 70.24C161.211 69.5573 161.531 68.512 161.531 67.104V64.8C161.531 63.392 161.211 62.368 160.571 61.728C159.973 61.0453 159.056 60.704 157.819 60.704H154.363V71.2H157.819ZM190.83 100V89.504H194.03V60.704H190.83V50.208H215.15V60.704H211.95V89.504H215.15V100H190.83ZM272.361 84H269.161V96.8C267.284 97.8667 264.532 98.8267 260.905 99.68C257.321 100.491 253.438 100.896 249.257 100.896C241.278 100.896 235.028 98.8053 230.505 94.624C225.982 90.4 223.721 83.8933 223.721 75.104C223.721 66.1013 225.961 59.552 230.441 55.456C234.964 51.36 241.406 49.312 249.769 49.312C253.822 49.312 257.62 49.7387 261.161 50.592C264.702 51.4453 267.369 52.4053 269.161 53.472V68.768H253.161V65.76C253.161 63.968 252.777 62.688 252.009 61.92C251.284 61.1093 250.11 60.704 248.489 60.704C246.868 60.704 245.673 61.1093 244.905 61.92C244.18 62.688 243.817 63.968 243.817 65.76V84.448C243.817 86.24 244.18 87.5413 244.905 88.352C245.673 89.12 246.868 89.504 248.489 89.504C250.11 89.504 251.284 89.12 252.009 88.352C252.777 87.5413 253.161 86.24 253.161 84.448V84H249.705V74.464H272.361V84Z" fill="#FF0143"/>
<path d="M320.488 90.004H323.048V100.5H297.96V90.004H301.8L300.776 84.884H292.072L291.048 90.004H294.888V100.5H273V90.004H275.56L286.5 40H308.548L320.488 90.004ZM293 78.1H299.368V53H296.5L293 78.1Z" fill="#FF0143"/>
<path d="M70.592 60.496H67.392V89.296H70.592V99.792H46.4V89.296H49.472V66.896L38.592 99.792H29.12L17.92 67.216V89.296H20.992V99.792H0V89.296H3.2V60.496H0V40H29.12L35.968 69.968L42.32 40H70.592V60.496Z" fill="#FF0143"/>
</svg>
